<svg width="240" height="60" viewBox="0 0 240 60" xmlns="http://www.w3.org/2000/svg">
  <!-- Logo Icon -->
  <g>
    <!-- Background circle -->
    <circle cx="30" cy="30" r="28" fill="#0A66C2"/>
    
    <!-- Singapore skyline silhouette -->
    <g fill="rgba(255,255,255,0.3)">
      <!-- Marina Bay Sands towers -->
      <rect x="12" y="38" width="3" height="16"/>
      <rect x="16" y="36" width="3" height="18"/>
      <rect x="20" y="39" width="3" height="15"/>
      <!-- Connecting platform -->
      <rect x="11" y="37" width="13" height="1"/>
      
      <!-- Other buildings -->
      <rect x="26" y="40" width="2" height="14"/>
      <rect x="29" y="38" width="3" height="16"/>
      <rect x="33" y="41" width="2" height="13"/>
      <rect x="36" y="39" width="3" height="15"/>
      <rect x="40" y="42" width="2" height="12"/>
      <rect x="43" y="40" width="3" height="14"/>
      <rect x="47" y="39" width="2" height="15"/>
    </g>
    
    <!-- Property/Building icon -->
    <g fill="white">
      <!-- Main building -->
      <rect x="18" y="18" width="10" height="12" rx="1"/>
      <!-- Roof -->
      <polygon points="17,18 23,12 29,18"/>
      <!-- Windows -->
      <rect x="20" y="20" width="1.5" height="2" fill="#0A66C2"/>
      <rect x="22" y="20" width="1.5" height="2" fill="#0A66C2"/>
      <rect x="24" y="20" width="1.5" height="2" fill="#0A66C2"/>
      <rect x="26" y="20" width="1.5" height="2" fill="#0A66C2"/>
      
      <rect x="20" y="23" width="1.5" height="2" fill="#0A66C2"/>
      <rect x="22" y="23" width="1.5" height="2" fill="#0A66C2"/>
      <rect x="24" y="23" width="1.5" height="2" fill="#0A66C2"/>
      <rect x="26" y="23" width="1.5" height="2" fill="#0A66C2"/>
      
      <rect x="20" y="26" width="1.5" height="2" fill="#0A66C2"/>
      <rect x="22" y="26" width="1.5" height="2" fill="#0A66C2"/>
      <rect x="24" y="26" width="1.5" height="2" fill="#0A66C2"/>
      <rect x="26" y="26" width="1.5" height="2" fill="#0A66C2"/>
      
      <!-- Door -->
      <rect x="22" y="27" width="2" height="3" fill="#0A66C2"/>
    </g>
  </g>
  
  <!-- Company Name -->
  <g>
    <text x="70" y="22" font-family="Inter, Arial, sans-serif" font-size="18" font-weight="700" fill="#1F2937">
      Singapore Property Hub
    </text>
    <text x="70" y="40" font-family="Inter, Arial, sans-serif" font-size="11" font-weight="500" fill="#6B7280">
      Premier Property Intelligence Platform
    </text>
  </g>
</svg>