<svg width="1920" height="1080" viewBox="0 0 1920 1080" xmlns="http://www.w3.org/2000/svg" role="img" aria-labelledby="hero-title hero-desc">
  <title id="hero-title">Singapore Property Landscape</title>
  <desc id="hero-desc">A scenic view of Singapore's modern property skyline featuring residential and commercial buildings</desc>
  
  <!-- Sky gradient background -->
  <defs>
    <linearGradient id="skyGradient" x1="0%" y1="0%" x2="0%" y2="100%">
      <stop offset="0%" style="stop-color:#87CEEB;stop-opacity:1" />
      <stop offset="100%" style="stop-color:#E0F6FF;stop-opacity:1" />
    </linearGradient>
  </defs>
  
  <!-- Sky -->
  <rect width="1920" height="1080" fill="url(#skyGradient)"/>
  
  <!-- Ground -->
  <rect x="0" y="800" width="1920" height="280" fill="#2F4F2F"/>
  
  <!-- Buildings -->
  <!-- Building 1 -->
  <rect x="200" y="400" width="200" height="400" fill="#4169E1" opacity="0.8"/>
  <rect x="220" y="420" width="40" height="40" fill="#FFE4B5" opacity="0.7"/>
  <rect x="280" y="420" width="40" height="40" fill="#FFE4B5" opacity="0.7"/>
  <rect x="340" y="420" width="40" height="40" fill="#FFE4B5" opacity="0.7"/>
  
  <!-- Building 2 -->
  <rect x="500" y="300" width="250" height="500" fill="#1E90FF" opacity="0.8"/>
  <rect x="520" y="320" width="50" height="50" fill="#FFE4B5" opacity="0.7"/>
  <rect x="590" y="320" width="50" height="50" fill="#FFE4B5" opacity="0.7"/>
  <rect x="660" y="320" width="50" height="50" fill="#FFE4B5" opacity="0.7"/>
  
  <!-- Building 3 -->
  <rect x="850" y="450" width="180" height="350" fill="#4682B4" opacity="0.8"/>
  <rect x="870" y="470" width="35" height="35" fill="#FFE4B5" opacity="0.7"/>
  <rect x="920" y="470" width="35" height="35" fill="#FFE4B5" opacity="0.7"/>
  <rect x="970" y="470" width="35" height="35" fill="#FFE4B5" opacity="0.7"/>
  
  <!-- Building 4 -->
  <rect x="1100" y="350" width="220" height="450" fill="#191970" opacity="0.8"/>
  <rect x="1120" y="370" width="45" height="45" fill="#FFE4B5" opacity="0.7"/>
  <rect x="1180" y="370" width="45" height="45" fill="#FFE4B5" opacity="0.7"/>
  <rect x="1240" y="370" width="45" height="45" fill="#FFE4B5" opacity="0.7"/>
  
  <!-- Building 5 -->
  <rect x="1400" y="500" width="200" height="300" fill="#000080" opacity="0.8"/>
  <rect x="1420" y="520" width="40" height="40" fill="#FFE4B5" opacity="0.7"/>
  <rect x="1480" y="520" width="40" height="40" fill="#FFE4B5" opacity="0.7"/>
  <rect x="1540" y="520" width="40" height="40" fill="#FFE4B5" opacity="0.7"/>
  
  <!-- Trees -->
  <circle cx="150" cy="780" r="50" fill="#228B22" opacity="0.8"/>
  <circle cx="450" cy="780" r="45" fill="#228B22" opacity="0.8"/>
  <circle cx="800" cy="780" r="48" fill="#228B22" opacity="0.8"/>
  <circle cx="1050" cy="780" r="52" fill="#228B22" opacity="0.8"/>
  <circle cx="1350" cy="780" r="46" fill="#228B22" opacity="0.8"/>
  <circle cx="1650" cy="780" r="50" fill="#228B22" opacity="0.8"/>
  
  <!-- Text overlay -->
  <text x="960" y="540" font-family="Arial, sans-serif" font-size="72" font-weight="bold" text-anchor="middle" fill="white" stroke="black" stroke-width="2" opacity="0.9">
    Singapore Property Hub
  </text>
</svg>