<svg width="144" height="144" viewBox="0 0 144 144" xmlns="http://www.w3.org/2000/svg">
  <!-- Background with LinkedIn blue -->
  <rect width="144" height="144" fill="#0A66C2" rx="16"/>
  
  <!-- Singapore skyline silhouette -->
  <g fill="rgba(255,255,255,0.2)">
    <!-- Marina Bay Sands towers -->
    <rect x="20" y="80" width="8" height="40"/>
    <rect x="30" y="75" width="8" height="45"/>
    <rect x="40" y="82" width="8" height="38"/>
    <!-- Connecting platform -->
    <rect x="18" y="78" width="32" height="3"/>
    
    <!-- Other buildings -->
    <rect x="55" y="85" width="6" height="35"/>
    <rect x="65" y="78" width="8" height="42"/>
    <rect x="76" y="88" width="5" height="32"/>
    <rect x="85" y="83" width="7" height="37"/>
    <rect x="95" y="90" width="6" height="30"/>
    <rect x="105" y="85" width="8" height="35"/>
    <rect x="116" y="82" width="6" height="38"/>
  </g>
  
  <!-- Property/Building icon -->
  <g fill="white">
    <!-- Main building -->
    <rect x="60" y="40" width="24" height="30" rx="2"/>
    <!-- Roof -->
    <polygon points="58,40 72,28 86,40"/>
    <!-- Windows -->
    <rect x="64" y="45" width="3" height="4" fill="#0A66C2"/>
    <rect x="69" y="45" width="3" height="4" fill="#0A66C2"/>
    <rect x="74" y="45" width="3" height="4" fill="#0A66C2"/>
    <rect x="79" y="45" width="3" height="4" fill="#0A66C2"/>
    
    <rect x="64" y="52" width="3" height="4" fill="#0A66C2"/>
    <rect x="69" y="52" width="3" height="4" fill="#0A66C2"/>
    <rect x="74" y="52" width="3" height="4" fill="#0A66C2"/>
    <rect x="79" y="52" width="3" height="4" fill="#0A66C2"/>
    
    <rect x="64" y="59" width="3" height="4" fill="#0A66C2"/>
    <rect x="69" y="59" width="3" height="4" fill="#0A66C2"/>
    <rect x="74" y="59" width="3" height="4" fill="#0A66C2"/>
    <rect x="79" y="59" width="3" height="4" fill="#0A66C2"/>
    
    <!-- Door -->
    <rect x="70" y="63" width="4" height="7" fill="#0A66C2"/>
  </g>
  
  <!-- Text -->
  <text x="72" y="105" dominant-baseline="central" text-anchor="middle" 
        fill="white" font-family="Inter, Arial, sans-serif" font-size="12" font-weight="600">SPH</text>
</svg>